<svg xmlns="http://www.w3.org/2000/svg" xmlns:xlink="http://www.w3.org/1999/xlink" width="500" zoomAndPan="magnify" viewBox="0 0 375 127.500001" height="170" preserveAspectRatio="xMidYMid meet" version="1.0"><defs><g/><clipPath id="aec0d13afe"><path d="M 29.300781 15.839844 L 115.960938 15.839844 L 115.960938 111.464844 L 29.300781 111.464844 Z M 29.300781 15.839844 " clip-rule="nonzero"/></clipPath></defs><g clip-path="url(#aec0d13afe)"><path fill="#ffffff" d="M 37.261719 38.175781 C 45.777344 31.511719 53.648438 27.808594 64.15625 24.949219 C 72.40625 22.703125 73.179688 22.703125 81.429688 24.949219 C 91.941406 27.808594 99.8125 31.511719 108.328125 38.175781 C 109.78125 41.394531 108.144531 52.339844 107.472656 55.910156 C 106.128906 63.074219 103.652344 70.113281 100.152344 76.585938 L 105.585938 82.019531 C 110.011719 74.367188 113.121094 65.917969 114.742188 57.273438 C 116.574219 47.5 117.496094 35.996094 113.285156 32.667969 C 104 25.324219 95.402344 21.085938 83.371094 17.8125 C 73.695312 15.183594 71.894531 15.183594 62.214844 17.8125 C 50.1875 21.085938 41.589844 25.324219 32.300781 32.667969 C 28.089844 35.996094 29.011719 47.5 30.847656 57.273438 C 35.203125 80.507812 50.304688 102.308594 72.792969 111.160156 C 82.167969 107.472656 90.257812 101.53125 96.824219 94.171875 L 91.585938 88.9375 C 86.367188 94.867188 80.050781 99.785156 72.792969 103.125 C 54.222656 94.574219 41.824219 75.707031 38.113281 55.910156 C 37.445312 52.339844 35.804688 41.394531 37.261719 38.175781 Z M 37.261719 38.175781 " fill-opacity="1" fill-rule="evenodd"/></g><path fill="#0fcc17" d="M 72.792969 99.019531 L 72.792969 85.386719 C 78.558594 85.386719 83.878906 83.492188 88.164062 80.285156 L 101.226562 93.347656 C 105.714844 97.835938 111.214844 92.878906 106.046875 87.710938 L 93.394531 75.058594 C 96.597656 70.769531 98.496094 65.449219 98.496094 59.6875 C 98.496094 45.492188 86.988281 33.984375 72.792969 33.984375 L 72.792969 26.964844 C 70.863281 26.964844 68.933594 27.480469 65.125 28.515625 C 55.5 31.136719 48.273438 34.445312 40.527344 40.324219 C 39.902344 43.960938 41.152344 52.058594 41.746094 55.230469 C 45.132812 73.28125 56.179688 90.65625 72.792969 99.019531 Z M 72.792969 77.992188 C 62.683594 77.992188 54.488281 69.796875 54.488281 59.683594 C 54.488281 49.574219 62.683594 41.378906 72.792969 41.378906 C 82.90625 41.378906 91.101562 49.574219 91.101562 59.683594 C 91.101562 69.796875 82.90625 77.992188 72.792969 77.992188 Z M 72.792969 77.992188 " fill-opacity="1" fill-rule="evenodd"/><g fill="#0fcc17" fill-opacity="1"><g transform="translate(121.556712, 78.442385)"><g><path d="M 10.71875 0 C 9.019531 0 7.476562 -0.394531 6.09375 -1.1875 C 4.707031 -1.976562 3.601562 -3.039062 2.78125 -4.375 C 1.96875 -5.71875 1.5625 -7.238281 1.5625 -8.9375 C 1.5625 -10.207031 1.835938 -11.394531 2.390625 -12.5 C 2.953125 -13.613281 3.710938 -14.570312 4.671875 -15.375 C 3.742188 -16.15625 3.015625 -17.078125 2.484375 -18.140625 C 1.953125 -19.210938 1.6875 -20.335938 1.6875 -21.515625 C 1.6875 -23.179688 2.085938 -24.671875 2.890625 -25.984375 C 3.703125 -27.296875 4.785156 -28.332031 6.140625 -29.09375 C 7.492188 -29.851562 8.988281 -30.234375 10.625 -30.234375 L 23.375 -30.234375 L 23.375 -24.1875 L 11.75 -24.1875 C 11.207031 -24.1875 10.703125 -24.054688 10.234375 -23.796875 C 9.773438 -23.546875 9.410156 -23.203125 9.140625 -22.765625 C 8.867188 -22.335938 8.734375 -21.832031 8.734375 -21.25 C 8.734375 -20.707031 8.867188 -20.210938 9.140625 -19.765625 C 9.410156 -19.316406 9.773438 -18.96875 10.234375 -18.71875 C 10.703125 -18.476562 11.207031 -18.359375 11.75 -18.359375 L 21.90625 -18.359375 L 21.90625 -12.3125 L 11.96875 -12.3125 C 11.363281 -12.3125 10.816406 -12.164062 10.328125 -11.875 C 9.835938 -11.59375 9.445312 -11.21875 9.15625 -10.75 C 8.875 -10.289062 8.734375 -9.757812 8.734375 -9.15625 C 8.734375 -8.582031 8.875 -8.054688 9.15625 -7.578125 C 9.445312 -7.109375 9.835938 -6.742188 10.328125 -6.484375 C 10.816406 -6.222656 11.363281 -6.09375 11.96875 -6.09375 L 23.375 -6.09375 L 23.375 0 Z M 10.71875 0 "/></g></g></g><g fill="#0fcc17" fill-opacity="1"><g transform="translate(146.613706, 78.442385)"><g><path d="M 11.40625 0.515625 C 9.445312 0.515625 7.71875 0.015625 6.21875 -0.984375 C 4.71875 -1.992188 3.550781 -3.351562 2.71875 -5.0625 C 1.882812 -6.78125 1.46875 -8.722656 1.46875 -10.890625 C 1.46875 -13.128906 1.957031 -15.132812 2.9375 -16.90625 C 3.914062 -18.6875 5.304688 -20.09375 7.109375 -21.125 C 8.910156 -22.164062 11.035156 -22.6875 13.484375 -22.6875 C 15.953125 -22.6875 18.054688 -22.171875 19.796875 -21.140625 C 21.546875 -20.117188 22.890625 -18.722656 23.828125 -16.953125 C 24.765625 -15.179688 25.234375 -13.203125 25.234375 -11.015625 L 25.234375 0 L 18.65625 0 L 18.65625 -3.546875 L 18.484375 -3.546875 C 18.085938 -2.765625 17.570312 -2.0625 16.9375 -1.4375 C 16.300781 -0.820312 15.53125 -0.34375 14.625 0 C 13.71875 0.34375 12.644531 0.515625 11.40625 0.515625 Z M 13.390625 -5.265625 C 14.398438 -5.265625 15.285156 -5.515625 16.046875 -6.015625 C 16.804688 -6.523438 17.390625 -7.226562 17.796875 -8.125 C 18.203125 -9.019531 18.40625 -10.015625 18.40625 -11.109375 C 18.40625 -12.171875 18.203125 -13.132812 17.796875 -14 C 17.390625 -14.863281 16.804688 -15.546875 16.046875 -16.046875 C 15.285156 -16.554688 14.398438 -16.8125 13.390625 -16.8125 C 12.359375 -16.8125 11.453125 -16.554688 10.671875 -16.046875 C 9.890625 -15.546875 9.296875 -14.863281 8.890625 -14 C 8.492188 -13.132812 8.296875 -12.171875 8.296875 -11.109375 C 8.296875 -10.015625 8.492188 -9.019531 8.890625 -8.125 C 9.296875 -7.226562 9.890625 -6.523438 10.671875 -6.015625 C 11.453125 -5.515625 12.359375 -5.265625 13.390625 -5.265625 Z M 13.390625 -5.265625 "/></g></g></g><g fill="#0fcc17" fill-opacity="1"><g transform="translate(174.306011, 78.442385)"><g><path d="M 2.546875 0 L 2.546875 -5.3125 L 13.21875 -5.3125 C 13.507812 -5.3125 13.769531 -5.375 14 -5.5 C 14.226562 -5.632812 14.414062 -5.816406 14.5625 -6.046875 C 14.707031 -6.273438 14.78125 -6.519531 14.78125 -6.78125 C 14.78125 -7.070312 14.707031 -7.332031 14.5625 -7.5625 C 14.414062 -7.789062 14.226562 -7.96875 14 -8.09375 C 13.769531 -8.226562 13.507812 -8.296875 13.21875 -8.296875 L 9.328125 -8.296875 C 7.890625 -8.296875 6.585938 -8.53125 5.421875 -9 C 4.253906 -9.476562 3.332031 -10.226562 2.65625 -11.25 C 1.976562 -12.269531 1.640625 -13.601562 1.640625 -15.25 C 1.640625 -16.519531 1.945312 -17.671875 2.5625 -18.703125 C 3.1875 -19.742188 4.035156 -20.578125 5.109375 -21.203125 C 6.191406 -21.835938 7.382812 -22.15625 8.6875 -22.15625 L 19.359375 -22.15625 L 19.359375 -16.8125 L 9.71875 -16.8125 C 9.3125 -16.8125 8.972656 -16.679688 8.703125 -16.421875 C 8.429688 -16.160156 8.296875 -15.84375 8.296875 -15.46875 C 8.296875 -15.0625 8.429688 -14.722656 8.703125 -14.453125 C 8.972656 -14.179688 9.3125 -14.046875 9.71875 -14.046875 L 13.515625 -14.046875 C 15.128906 -14.046875 16.519531 -13.804688 17.6875 -13.328125 C 18.851562 -12.847656 19.757812 -12.085938 20.40625 -11.046875 C 21.0625 -10.015625 21.390625 -8.679688 21.390625 -7.046875 C 21.390625 -5.742188 21.0625 -4.5625 20.40625 -3.5 C 19.757812 -2.4375 18.894531 -1.585938 17.8125 -0.953125 C 16.738281 -0.316406 15.523438 0 14.171875 0 Z M 2.546875 0 "/></g></g></g><g fill="#0fcc17" fill-opacity="1"><g transform="translate(197.202924, 78.442385)"><g><path d="M 10.203125 8.765625 L 10.203125 0.125 C 8.585938 -0.269531 7.203125 -0.921875 6.046875 -1.828125 C 4.890625 -2.742188 4.007812 -3.851562 3.40625 -5.15625 C 2.800781 -6.46875 2.5 -7.890625 2.5 -9.421875 L 2.5 -22.15625 L 9.203125 -22.15625 L 9.203125 -9.640625 C 9.203125 -8.859375 9.390625 -8.132812 9.765625 -7.46875 C 10.140625 -6.8125 10.648438 -6.285156 11.296875 -5.890625 C 11.941406 -5.503906 12.671875 -5.3125 13.484375 -5.3125 C 14.316406 -5.3125 15.054688 -5.503906 15.703125 -5.890625 C 16.347656 -6.285156 16.859375 -6.8125 17.234375 -7.46875 C 17.609375 -8.132812 17.796875 -8.859375 17.796875 -9.640625 L 17.796875 -22.15625 L 24.5 -22.15625 L 24.5 -9.421875 C 24.5 -7.890625 24.203125 -6.472656 23.609375 -5.171875 C 23.015625 -3.878906 22.148438 -2.769531 21.015625 -1.84375 C 19.878906 -0.925781 18.503906 -0.28125 16.890625 0.09375 L 16.890625 8.765625 Z M 10.203125 8.765625 "/></g></g></g><g fill="#ffffff" fill-opacity="1"><g transform="translate(224.208838, 78.442385)"><g><path d="M 2.25 0 L 2.25 -21.296875 C 2.25 -22.972656 2.65625 -24.484375 3.46875 -25.828125 C 4.289062 -27.179688 5.398438 -28.253906 6.796875 -29.046875 C 8.203125 -29.835938 9.765625 -30.234375 11.484375 -30.234375 L 22.765625 -30.234375 L 22.765625 -24.1875 L 12.40625 -24.1875 C 11.59375 -24.1875 10.90625 -23.898438 10.34375 -23.328125 C 9.78125 -22.753906 9.5 -22.050781 9.5 -21.21875 L 9.5 -16.84375 L 21.296875 -16.84375 L 21.296875 -10.84375 L 9.5 -10.84375 L 9.5 0 Z M 2.25 0 "/></g></g></g><g fill="#ffffff" fill-opacity="1"><g transform="translate(248.272194, 78.442385)"><g><path d="M 2.5 0 L 2.5 -22.15625 L 9.25 -22.15625 L 9.25 0 Z M 5.875 -24.671875 C 4.8125 -24.671875 3.890625 -25.054688 3.109375 -25.828125 C 2.335938 -26.609375 1.953125 -27.53125 1.953125 -28.59375 C 1.953125 -29.65625 2.335938 -30.582031 3.109375 -31.375 C 3.890625 -32.164062 4.8125 -32.5625 5.875 -32.5625 C 6.945312 -32.5625 7.867188 -32.164062 8.640625 -31.375 C 9.421875 -30.582031 9.8125 -29.65625 9.8125 -28.59375 C 9.8125 -27.53125 9.421875 -26.609375 8.640625 -25.828125 C 7.867188 -25.054688 6.945312 -24.671875 5.875 -24.671875 Z M 5.875 -24.671875 "/></g></g></g><g fill="#ffffff" fill-opacity="1"><g transform="translate(259.936663, 78.442385)"><g><path d="M 2.5 0 L 2.5 -12.75 C 2.5 -14.59375 2.945312 -16.257812 3.84375 -17.75 C 4.738281 -19.25 6.015625 -20.445312 7.671875 -21.34375 C 9.328125 -22.238281 11.289062 -22.6875 13.5625 -22.6875 C 15.863281 -22.6875 17.828125 -22.238281 19.453125 -21.34375 C 21.085938 -20.445312 22.335938 -19.25 23.203125 -17.75 C 24.066406 -16.257812 24.5 -14.59375 24.5 -12.75 L 24.5 0 L 17.796875 0 L 17.796875 -12.578125 C 17.796875 -13.347656 17.609375 -14.054688 17.234375 -14.703125 C 16.859375 -15.359375 16.347656 -15.878906 15.703125 -16.265625 C 15.054688 -16.648438 14.328125 -16.84375 13.515625 -16.84375 C 12.679688 -16.84375 11.941406 -16.648438 11.296875 -16.265625 C 10.648438 -15.878906 10.140625 -15.359375 9.765625 -14.703125 C 9.390625 -14.054688 9.203125 -13.347656 9.203125 -12.578125 L 9.203125 0 Z M 2.5 0 "/></g></g></g><g fill="#ffffff" fill-opacity="1"><g transform="translate(286.937744, 78.442385)"><g><path d="M 13.34375 0.515625 C 11.5 0.515625 9.835938 0.226562 8.359375 -0.34375 C 6.878906 -0.914062 5.632812 -1.742188 4.625 -2.828125 C 3.613281 -3.910156 2.832031 -5.1875 2.28125 -6.65625 C 1.738281 -8.125 1.46875 -9.722656 1.46875 -11.453125 C 1.46875 -13.691406 1.921875 -15.644531 2.828125 -17.3125 C 3.734375 -18.988281 4.984375 -20.300781 6.578125 -21.25 C 8.179688 -22.207031 10.019531 -22.6875 12.09375 -22.6875 C 12.988281 -22.6875 13.832031 -22.566406 14.625 -22.328125 C 15.414062 -22.097656 16.132812 -21.757812 16.78125 -21.3125 C 17.425781 -20.875 17.96875 -20.351562 18.40625 -19.75 L 18.53125 -19.75 L 18.53125 -31.53125 L 25.234375 -31.53125 L 25.234375 -11.484375 C 25.234375 -9.066406 24.742188 -6.953125 23.765625 -5.140625 C 22.785156 -3.328125 21.410156 -1.929688 19.640625 -0.953125 C 17.867188 0.0234375 15.769531 0.515625 13.34375 0.515625 Z M 13.34375 -5.265625 C 14.382812 -5.265625 15.285156 -5.515625 16.046875 -6.015625 C 16.804688 -6.523438 17.390625 -7.21875 17.796875 -8.09375 C 18.203125 -8.976562 18.40625 -9.96875 18.40625 -11.0625 C 18.40625 -12.15625 18.203125 -13.132812 17.796875 -14 C 17.390625 -14.863281 16.804688 -15.546875 16.046875 -16.046875 C 15.285156 -16.554688 14.382812 -16.8125 13.34375 -16.8125 C 12.34375 -16.8125 11.453125 -16.554688 10.671875 -16.046875 C 9.890625 -15.546875 9.296875 -14.863281 8.890625 -14 C 8.492188 -13.132812 8.296875 -12.15625 8.296875 -11.0625 C 8.296875 -9.96875 8.492188 -8.976562 8.890625 -8.09375 C 9.296875 -7.21875 9.890625 -6.523438 10.671875 -6.015625 C 11.453125 -5.515625 12.34375 -5.265625 13.34375 -5.265625 Z M 13.34375 -5.265625 "/></g></g></g><g fill="#ffffff" fill-opacity="1"><g transform="translate(314.500438, 78.442385)"><g><path d="M 14.078125 0 C 11.578125 0 9.375 -0.46875 7.46875 -1.40625 C 5.570312 -2.34375 4.097656 -3.640625 3.046875 -5.296875 C 1.992188 -6.953125 1.46875 -8.875 1.46875 -11.0625 C 1.46875 -13.476562 1.972656 -15.550781 2.984375 -17.28125 C 3.992188 -19.007812 5.335938 -20.34375 7.015625 -21.28125 C 8.703125 -22.21875 10.566406 -22.6875 12.609375 -22.6875 C 14.941406 -22.6875 16.894531 -22.195312 18.46875 -21.21875 C 20.039062 -20.238281 21.226562 -18.90625 22.03125 -17.21875 C 22.84375 -15.53125 23.25 -13.609375 23.25 -11.453125 C 23.25 -11.078125 23.222656 -10.632812 23.171875 -10.125 C 23.128906 -9.625 23.082031 -9.226562 23.03125 -8.9375 L 8.515625 -8.9375 C 8.679688 -8.1875 9.007812 -7.550781 9.5 -7.03125 C 9.988281 -6.519531 10.609375 -6.140625 11.359375 -5.890625 C 12.109375 -5.648438 12.945312 -5.53125 13.875 -5.53125 L 20.65625 -5.53125 L 20.65625 0 Z M 8.34375 -13.140625 L 16.765625 -13.140625 C 16.703125 -13.597656 16.613281 -14.039062 16.5 -14.46875 C 16.382812 -14.90625 16.203125 -15.285156 15.953125 -15.609375 C 15.710938 -15.941406 15.429688 -16.226562 15.109375 -16.46875 C 14.796875 -16.71875 14.429688 -16.914062 14.015625 -17.0625 C 13.597656 -17.207031 13.128906 -17.28125 12.609375 -17.28125 C 11.953125 -17.28125 11.363281 -17.164062 10.84375 -16.9375 C 10.320312 -16.707031 9.890625 -16.394531 9.546875 -16 C 9.203125 -15.613281 8.9375 -15.164062 8.75 -14.65625 C 8.5625 -14.15625 8.425781 -13.648438 8.34375 -13.140625 Z M 8.34375 -13.140625 "/></g></g></g><g fill="#ffffff" fill-opacity="1"><g transform="translate(339.125419, 78.442385)"><g><path d="M 2.328125 0 L 2.328125 -15.640625 C 2.328125 -17.648438 2.90625 -19.234375 4.0625 -20.390625 C 5.21875 -21.546875 6.816406 -22.125 8.859375 -22.125 L 15.296875 -22.125 L 15.296875 -16.671875 L 10.5 -16.671875 C 10.09375 -16.671875 9.742188 -16.535156 9.453125 -16.265625 C 9.171875 -15.992188 9.03125 -15.640625 9.03125 -15.203125 L 9.03125 0 Z M 2.328125 0 "/></g></g></g></svg>